<svg width="37" height="37" viewBox="0 0 37 37" fill="none" xmlns="http://www.w3.org/2000/svg">
<path d="M18.6249 12.0356C14.9839 12.0356 12.0219 15.0767 12.0219 18.8148C12.0219 22.553 14.9839 25.594 18.6249 25.594C22.266 25.594 25.228 22.553 25.228 18.8148C25.228 15.0767 22.2666 12.0356 18.6249 12.0356ZM18.6249 23.259C16.2382 23.259 14.2962 21.2646 14.2962 18.8148C14.2962 16.3644 16.2375 14.3707 18.6249 14.3707C21.0104 14.3707 22.9536 16.3637 22.9536 18.8148C22.9536 21.2639 21.011 23.259 18.6249 23.259Z" fill="#E6E8E6"/>
<path d="M30.9875 4.80554L26.322 7.57239C25.6725 7.10129 24.9815 6.69269 24.2578 6.34932V0.813553H12.9909V6.34932C12.3166 6.67003 11.6671 7.05048 11.0524 7.48518L6.41296 4.66201L0.669816 14.6114L5.30928 17.4332C5.25711 17.9201 5.23236 18.3761 5.23236 18.8136C5.23236 19.2077 5.25176 19.6088 5.2939 20.0394L0.625 22.8076L6.25844 32.8229L10.9267 30.0547C11.5775 30.5258 12.2671 30.9344 12.9922 31.2778V36.8136H24.2591V31.2778C24.9334 30.9571 25.5815 30.5766 26.1962 30.1419L30.8357 32.9651L36.5788 23.0157L31.9407 20.1939C31.9929 19.7097 32.0176 19.2524 32.0176 18.8136C32.0176 18.418 31.9982 18.0183 31.9561 17.5877L36.625 14.8195L30.9875 4.80554ZM29.4939 16.3509L29.6076 17.1359C29.6992 17.7732 29.7434 18.3054 29.7434 18.8136C29.7434 19.3609 29.6926 19.9508 29.5882 20.6204L29.4665 21.4039L33.4618 23.8343L30.0377 29.767L26.0424 27.3352L25.431 27.8249C24.5989 28.4903 23.6805 29.0294 22.7033 29.425L21.9835 29.7162V34.4793H15.2645V29.7175L14.5461 29.425C13.5207 29.0095 12.5695 28.4443 11.7166 27.7473L11.1106 27.2508L7.09055 29.6344L3.73202 23.6633L7.7561 21.2769L7.64239 20.4919C7.55075 19.8546 7.5066 19.3224 7.5066 18.8142C7.5066 18.2642 7.5561 17.6887 7.66179 17.0047L7.78085 16.2225L3.78687 13.7935L7.21095 7.86082L11.2063 10.2939L11.8176 9.80428C12.6524 9.13746 13.5708 8.59838 14.5467 8.20282L15.2651 7.91164V3.14845H21.9842V7.91027L22.7039 8.20282C23.7267 8.61829 24.6792 9.18348 25.5327 9.88051L26.1401 10.377L30.1588 7.99474L33.5186 13.9645L29.4939 16.3509Z" fill="#E6E8E6"/>
</svg>
