<svg width="31" height="37" viewBox="0 0 31 37" fill="none" xmlns="http://www.w3.org/2000/svg">
<path d="M30.625 12.0503V6.7198C30.625 6.0984 30.0817 5.59414 29.4129 5.59414H21.3822V1.93855C21.3822 1.31782 20.8396 0.813553 20.1708 0.813553H11.0799C10.4104 0.813553 9.86707 1.31782 9.86707 1.93855V5.59414H1.83712C1.1676 5.59414 0.625 6.0984 0.625 6.7198V12.0503C0.625 12.6711 1.1676 13.1747 1.83712 13.1747H2.18507V35.6886C2.18507 36.3093 2.72767 36.8136 3.39648 36.8136H24.4168C26.9801 36.8136 29.0656 34.8786 29.0656 32.5002V13.1753H29.4122C30.0817 13.1753 30.625 12.6717 30.625 12.0503ZM12.2913 3.06355H18.958V5.59414H12.2913V3.06355ZM26.6421 32.5008C26.6421 33.6384 25.6439 34.5636 24.4175 34.5636H4.61003V13.1753L26.6421 13.1766V32.5008ZM28.2 10.9253H3.04853V7.8448H11.0799H20.1708H28.2008V10.9253H28.2Z" fill="#E6E8E6"/>
<path d="M10.7754 17.6886H8.3512V30.9073H10.7754V17.6886Z" fill="#E6E8E6"/>
<path d="M16.836 17.6886H14.4118V30.9073H16.836V17.6886Z" fill="#E6E8E6"/>
<path d="M22.8967 17.6886H20.4724V30.9073H22.8967V17.6886Z" fill="#E6E8E6"/>
</svg>
